<svg xmlns="http://www.w3.org/2000/svg" width="24" height="24" fill="none" viewBox="0 0 24 24" id="youtube-gaming"><path fill="#000" fill-rule="evenodd" d="M5.1279 4.34882C5.35262 4.2204 5.62768 4.21694 5.85557 4.33965L12 7.64818L18.1444 4.33965C18.3723 4.21694 18.6474 4.2204 18.8721 4.34882L22.3721 6.34882C22.6058 6.48235 22.75 6.73086 22.75 7V14.5C22.75 14.7951 22.5769 15.0628 22.3078 15.1839L18.9744 16.6839C18.5967 16.8539 18.1527 16.6855 17.9827 16.3078C17.8127 15.93 17.9812 15.486 18.3589 15.3161L21.25 14.0151V7.43524L18.4892 5.85764L12.3556 9.16035C12.1336 9.27988 11.8664 9.27988 11.6444 9.16035L5.51081 5.85764L2.75 7.43524V14.0151L12 18.1776L14.1922 17.1911C14.57 17.0211 15.014 17.1895 15.1839 17.5672C15.3539 17.945 15.1855 18.389 14.8078 18.5589L12.3078 19.6839C12.112 19.772 11.888 19.772 11.6922 19.6839L1.69223 15.1839C1.42309 15.0628 1.25 14.7951 1.25 14.5V7C1.25 6.73086 1.39421 6.48235 1.6279 6.34882L5.1279 4.34882Z" clip-rule="evenodd"></path><path fill="#000" fill-rule="evenodd" d="M3.75 11.5C3.75 11.0858 4.08579 10.75 4.5 10.75H9.5C9.91421 10.75 10.25 11.0858 10.25 11.5C10.25 11.9142 9.91421 12.25 9.5 12.25H4.5C4.08579 12.25 3.75 11.9142 3.75 11.5Z" clip-rule="evenodd"></path><path fill="#000" fill-rule="evenodd" d="M7 14.75C6.58579 14.75 6.25 14.4142 6.25 14V9C6.25 8.58579 6.58579 8.25 7 8.25 7.41421 8.25 7.75 8.58579 7.75 9V14C7.75 14.4142 7.41421 14.75 7 14.75zM14.75 13C14.75 12.5858 15.0858 12.25 15.5 12.25H17.5C17.9142 12.25 18.25 12.5858 18.25 13 18.25 13.4142 17.9142 13.75 17.5 13.75H15.5C15.0858 13.75 14.75 13.4142 14.75 13zM16.75 10C16.75 9.58579 17.0858 9.25 17.5 9.25H19.5C19.9142 9.25 20.25 9.58579 20.25 10 20.25 10.4142 19.9142 10.75 19.5 10.75H17.5C17.0858 10.75 16.75 10.4142 16.75 10z" clip-rule="evenodd"></path></svg>