<svg xmlns="http://www.w3.org/2000/svg" width="24" height="24" fill="none" id="live-streaming"><path fill="#000" fill-rule="evenodd" d="M12 10a2 2 0 1 0 0 4 2 2 0 0 0 0-4zm-3 2a3 3 0 1 1 6 0 3 3 0 0 1-6 0zm-.53-3.651c-1.96 2.015-1.96 5.287 0 7.302l-.718.698c-2.336-2.404-2.336-6.294 0-8.698l.717.698zm7.06 7.302c1.96-2.015 1.96-5.287 0-7.302l.718-.698c2.336 2.404 2.336 6.294 0 8.698l-.717-.698z" clip-rule="evenodd"></path><path fill="#000" fill-rule="evenodd" d="M6.343 6.354a7.975 7.975 0 0 0 0 11.292l-.707.708a8.975 8.975 0 0 1 0-12.708l.707.708Zm11.314 11.292a7.975 7.975 0 0 0 0-11.292l.707-.708a8.975 8.975 0 0 1 0 12.708l-.707-.708Z" clip-rule="evenodd"></path></svg>