<svg xmlns="http://www.w3.org/2000/svg" fill-rule="evenodd" stroke-linejoin="round" stroke-miterlimit="2" clip-rule="evenodd" viewBox="0 0 32 32" id="trend"><path d="M99.121,99.414C96.867,94.959 97.026,91.319 99.563,86.757C99.635,86.628 99.759,86.538 99.903,86.509C100.048,86.481 100.197,86.518 100.312,86.609C100.312,86.609 103.971,89.531 106.899,93.621C108.882,96.393 110.518,99.7 110.518,103C110.518,108.795 105.805,113.5 100,113.5C94.195,113.5 89.482,108.795 89.482,103C89.482,99.374 91.46,95.74 93.698,92.816C93.862,92.601 94.058,92.579 94.24,92.625C94.332,92.649 94.488,92.713 94.596,92.922C94.66,93.048 94.757,93.409 94.886,93.91C95.141,94.906 95.578,96.543 96.408,97.71C97.213,98.844 98.348,99.261 99.121,99.414ZM107.481,96.366C107.127,102.571 101.977,107.5 95.684,107.5C94.096,107.5 92.58,107.186 91.197,106.617C92.624,110.069 96.03,112.5 100,112.5C105.253,112.5 109.518,108.243 109.518,103C109.518,100.721 108.67,98.446 107.481,96.366ZM106.459,94.738C106.336,94.558 106.211,94.379 106.085,94.203C103.861,91.095 101.202,88.681 100.15,87.777C97.942,92.019 98.025,95.444 100.436,99.756C100.521,99.908 100.521,100.093 100.436,100.244C100.351,100.396 100.194,100.493 100.02,100.5C100.02,100.5 97.245,100.615 95.592,98.29C94.815,97.196 94.34,95.731 94.046,94.648L93.923,94.191C92.054,96.798 90.482,99.895 90.482,103C90.482,103.8 90.581,104.576 90.768,105.319C92.243,106.074 93.914,106.5 95.684,106.5C101.654,106.5 106.5,101.654 106.5,95.684C106.5,95.365 106.486,95.05 106.459,94.738Z" transform="translate(-84 -84)"></path></svg>